# xmcd
# 
# Track frame offsets:
#   150
#   15378
#   34903
#   52840
#   67167
#   83880
#   101215
#   116540
#   131143
#   148908
#   159939
#   177929
#   196404
#   212215
#   229185
#   243019
#   264742
# 
# Disc length: 3720 seconds
# 
# Revision: 1
# Processed by: cddbd v1.5.2PL0 Copyright (c) Steve Scherf et al.
# Submitted via: Synapstar 1.0 
# 
DISCID=f30e8611
DTITLE=Various Artist - CKC011
DYEAR=1900
DGENRE=Country
TTITLE0=Byrd, Tracy - Watermelon Crawl
TTITLE1=Byrd, Tracy - Keeper Of The Stars, The
TTITLE2=Byrd, Tracy - Just Let Me Be In Love
TTITLE3=Byrd, Tracy - Lifestyles Of The Not So Rich and Famous
TTITLE4=Byrd, Tracy - Good Way To Get On My Bad Side, A
TTITLE5=Byrd, Tracy - Walking To Jerusalem
TTITLE6=Byrd, Tracy - Ten Rounds With Jose Cuervo
TTITLE7=Byrd, Tracy - Truth About Men, The
TTITLE8=Byrd, Tracy - Lately
TTITLE9=Byrd, Tracy - Drinkin' Bone
TTITLE10=Joe Diffie - Pickup Man
TTITLE11=Joe Diffie - Prop Me Up Beside The Jukebox
TTITLE12=Joe Diffie - I'm In Love With A Capital U
TTITLE13=Joe Diffie - Honky Tonk Attitude
TTITLE14=Joe Diffie - If The Devil Danced (In Empty Pockets)
TTITLE15=Joe Diffie - John Deere Green
TTITLE16=Joe Diffie - Third Rock From The Sun
EXTD=MediaType: Karaoke CD+G Producer: Unknown
EXTT0=
EXTT1=
EXTT2=
EXTT3=
EXTT4=
EXTT5=
EXTT6=
EXTT7=
EXTT8=
EXTT9=
EXTT10=
EXTT11=
EXTT12=
EXTT13=
EXTT14=
EXTT15=
EXTT16=
PLAYORDER=
